<?xml version="1.0" encoding="UTF-8" standalone="no"?>
<svg
   xmlns:dc="http://purl.org/dc/elements/1.1/"
   xmlns:cc="http://creativecommons.org/ns#"
   xmlns:rdf="http://www.w3.org/1999/02/22-rdf-syntax-ns#"
   xmlns:svg="http://www.w3.org/2000/svg"
   xmlns="http://www.w3.org/2000/svg"
   xmlns:sodipodi="http://sodipodi.sourceforge.net/DTD/sodipodi-0.dtd"
   xmlns:inkscape="http://www.inkscape.org/namespaces/inkscape"
   width="18"
   height="18"
   version="1.1"
   id="svg4"
   sodipodi:docname="icon-all.svg"
   inkscape:version="0.92.3 (2405546, 2018-03-11)">
  <metadata
     id="metadata10">
    <rdf:RDF>
      <cc:Work
         rdf:about="">
        <dc:format>image/svg+xml</dc:format>
        <dc:type
           rdf:resource="http://purl.org/dc/dcmitype/StillImage" />
      </cc:Work>
    </rdf:RDF>
  </metadata>
  <defs
     id="defs8" />
  <sodipodi:namedview
     pagecolor="#ffffff"
     bordercolor="#666666"
     borderopacity="1"
     objecttolerance="10"
     gridtolerance="10"
     guidetolerance="10"
     inkscape:pageopacity="0"
     inkscape:pageshadow="2"
     inkscape:window-width="640"
     inkscape:window-height="480"
     id="namedview6"
     showgrid="false"
     inkscape:zoom="13.111111"
     inkscape:cx="9"
     inkscape:cy="9"
     inkscape:window-x="25"
     inkscape:window-y="0"
     inkscape:window-maximized="0"
     inkscape:current-layer="svg4" />
  <path
     d="M 17,12 H 9 a 3,3 0 0 1 3,3 v 2 a 1,1 0 0 1 -1,1 H 1 A 1,1 0 0 1 0,17 V 15 A 3,3 0 0 1 3,12 H 3.184 A 2.962,2.962 0 0 1 3,11 V 9 A 3,3 0 0 1 6,6 C 6.549,6 7.057,6.158 7.5,6.416 A 2.968,2.968 0 0 1 9,6 H 9.184 A 2.962,2.962 0 0 1 9,5 V 3 a 3,3 0 1 1 6,0 v 2 c 0,0.353 -0.072,0.686 -0.184,1 H 15 a 3,3 0 0 1 3,3 v 2 a 1,1 0 0 1 -1,1 z M 7,9 A 1,1 0 0 0 5,9 v 2 a 1,1 0 0 0 2,0 z m -4,5 a 1,1 0 0 0 -1,1 v 1 h 8 V 15 A 1,1 0 0 0 9,14 Z M 13,3 a 1,1 0 0 0 -2,0 v 2 a 1,1 0 0 0 2,0 z m 3,6 A 1,1 0 0 0 15,8 H 9 C 8.939,8 8.885,8.024 8.827,8.035 8.931,8.339 9,8.66 9,9 v 1 h 7 z"
     id="path2"
     style="fill:#ffffff;fill-rule:evenodd"
     inkscape:connector-curvature="0" />
</svg>
