<?xml version="1.0" encoding="UTF-8" standalone="no"?>
<svg
   xmlns:dc="http://purl.org/dc/elements/1.1/"
   xmlns:cc="http://creativecommons.org/ns#"
   xmlns:rdf="http://www.w3.org/1999/02/22-rdf-syntax-ns#"
   xmlns:svg="http://www.w3.org/2000/svg"
   xmlns="http://www.w3.org/2000/svg"
   xmlns:sodipodi="http://sodipodi.sourceforge.net/DTD/sodipodi-0.dtd"
   xmlns:inkscape="http://www.inkscape.org/namespaces/inkscape"
   width="20"
   height="24"
   version="1.1"
   id="svg6"
   sodipodi:docname="icon-notary-license.svg"
   inkscape:version="0.92.3 (2405546, 2018-03-11)">
  <metadata
     id="metadata12">
    <rdf:RDF>
      <cc:Work
         rdf:about="">
        <dc:format>image/svg+xml</dc:format>
        <dc:type
           rdf:resource="http://purl.org/dc/dcmitype/StillImage" />
      </cc:Work>
    </rdf:RDF>
  </metadata>
  <defs
     id="defs10" />
  <sodipodi:namedview
     pagecolor="#ffffff"
     bordercolor="#666666"
     borderopacity="1"
     objecttolerance="10"
     gridtolerance="10"
     guidetolerance="10"
     inkscape:pageopacity="0"
     inkscape:pageshadow="2"
     inkscape:window-width="640"
     inkscape:window-height="480"
     id="namedview8"
     showgrid="false"
     inkscape:zoom="9.8333333"
     inkscape:cx="10"
     inkscape:cy="12"
     inkscape:window-x="211"
     inkscape:window-y="123"
     inkscape:window-maximized="0"
     inkscape:current-layer="svg6" />
  <path
     d="m 0,2 h 19 v 8 H 0 Z"
     id="path2"
     style="fill:#5f8dd3;fill-rule:evenodd"
     inkscape:connector-curvature="0" />
  <path
     d="m 19,21 h -2 a 1,1 0 0 1 0,-2 h 1 V 2 H 2 v 17 h 7 a 1,1 0 0 1 0,2 H 1 A 1,1 0 0 1 0,20 V 1 A 1,1 0 0 1 1,0 h 18 a 1,1 0 0 1 1,1 v 19 a 1,1 0 0 1 -1,1 z M 15,11 h -3 a 1,1 0 0 1 0,-2 h 3 a 1,1 0 0 1 0,2 z M 5,5 h 10 a 1,1 0 0 1 0,2 H 5 A 1,1 0 0 1 5,5 Z m 0,8 h 3 a 1,1 0 0 1 0,2 H 5 A 1,1 0 0 1 5,13 Z M 5,9 h 3 a 1,1 0 0 1 0,2 H 5 A 1,1 0 0 1 5,9 Z m 8,4 a 3,3 0 0 1 3,3 2.99,2.99 0 0 1 -2,2.816 V 23 a 1,1 0 0 1 -2,0 V 18.816 A 2.99,2.99 0 0 1 10,16 3,3 0 0 1 13,13 Z m 0,4 a 1,1 0 1 0 0,-2 1,1 0 0 0 0,2 z"
     id="path4"
     style="fill:#3771c8;fill-rule:evenodd"
     inkscape:connector-curvature="0" />
</svg>
