<?xml version="1.0" encoding="UTF-8" standalone="no"?>
<svg
   xmlns:dc="http://purl.org/dc/elements/1.1/"
   xmlns:cc="http://creativecommons.org/ns#"
   xmlns:rdf="http://www.w3.org/1999/02/22-rdf-syntax-ns#"
   xmlns:svg="http://www.w3.org/2000/svg"
   xmlns="http://www.w3.org/2000/svg"
   xmlns:sodipodi="http://sodipodi.sourceforge.net/DTD/sodipodi-0.dtd"
   xmlns:inkscape="http://www.inkscape.org/namespaces/inkscape"
   width="24"
   height="24"
   version="1.1"
   id="svg6"
   sodipodi:docname="icon-notary.svg"
   inkscape:version="0.92.3 (2405546, 2018-03-11)">
  <metadata
     id="metadata12">
    <rdf:RDF>
      <cc:Work
         rdf:about="">
        <dc:format>image/svg+xml</dc:format>
        <dc:type
           rdf:resource="http://purl.org/dc/dcmitype/StillImage" />
      </cc:Work>
    </rdf:RDF>
  </metadata>
  <defs
     id="defs10" />
  <sodipodi:namedview
     pagecolor="#ffffff"
     bordercolor="#666666"
     borderopacity="1"
     objecttolerance="10"
     gridtolerance="10"
     guidetolerance="10"
     inkscape:pageopacity="0"
     inkscape:pageshadow="2"
     inkscape:window-width="640"
     inkscape:window-height="480"
     id="namedview8"
     showgrid="false"
     inkscape:zoom="9.8333333"
     inkscape:cx="12"
     inkscape:cy="12"
     inkscape:window-x="25"
     inkscape:window-y="0"
     inkscape:window-maximized="0"
     inkscape:current-layer="svg6" />
  <path
     d="M 22,24 H 2 A 2,2 0 0 1 0,22 V 20 A 8.002,8.002 0 0 1 6.416,12.158 C 7.285,14.402 9.45,16 12,16 c 2.551,0 4.715,-1.598 5.584,-3.842 A 8.002,8.002 0 0 1 24,20 v 2 a 2,2 0 0 1 -2,2 z"
     id="path2"
     style="opacity:0.2;fill:#5f8dd3;fill-rule:evenodd"
     inkscape:connector-curvature="0" />
  <path
     d="M 22,24 H 2 A 2,2 0 0 1 0,22 V 20 A 8.002,8.002 0 0 1 6.416,12.158 5.975,5.975 0 0 1 6,10 V 6 a 6,6 0 1 1 12,0 v 4 c 0,0.763 -0.157,1.487 -0.416,2.158 A 8.002,8.002 0 0 1 24,20 v 2 a 2,2 0 0 1 -2,2 z M 16,7.143 C 16,4.303 14.209,2 12,2 9.791,2 8,4.303 8,7.143 V 8.857 C 8,11.697 9.791,14 12,14 c 2.209,0 4,-2.303 4,-5.143 z M 22,20 C 22,16.826 19.528,14.255 16.409,14.041 15.312,15.237 13.751,16 12,16 10.249,16 8.688,15.237 7.591,14.041 4.472,14.255 2,16.826 2,20 v 1 a 1,1 0 0 0 1,1 h 3 v -2 a 1,1 0 0 1 2,0 v 2 h 8 v -2 a 1,1 0 0 1 2,0 v 2 h 3 a 1,1 0 0 0 1,-1 z"
     id="path4"
     style="fill:#3771c8;fill-rule:evenodd"
     inkscape:connector-curvature="0" />
</svg>
